# xmcd
# 
# Track frame offsets:
#     150
#     15243
#     28393
#     41591
#     56638
#     77033
#     88589
#     100789
#     119676
#     136618
#     155903
#     167990
#     180927
#     193850
#     204140
#     219828
#     234823
#     249101
#     261590
#     276108
# 
# Disc length: 3893
# 
# Revision: 2
# Processed by: cddbd v1.5.2PL0 Copyright (c) Steve Scherf et al.
# Submitted via: fre:ac v1.0.31
# 
DISCID=090f3314
DTITLE=70's - 20 Greats From The Golden Decade Of Power Pop
DYEAR=2005
DGENRE=Rock/Pop
TTITLE0=Raspberries - Go All The Way
TTITLE1=Big Star - In The Street
TTITLE2=The Romantics - What I Like About You
TTITLE3=Todd Rundgren - Couldn't I Just Tell You
TTITLE4=Flamin' Groovies - Shake Some Action
TTITLE5=The Paley Brothers - Come Out and Play
TTITLE6=The Spongetones - Better Take It Easy
TTITLE7=Cheap Trick - Surrender
TTITLE8=The Pop - You Oughta Know
TTITLE9=20/20 - Yellow Pills
TTITLE10=Pezband - Stop! Wait a Minute
TTITLE11=The Scruffs - She Say Yea
TTITLE12=Phil Seymour - Precious to Me
TTITLE13=The Beat - Rock and Roll Girl
TTITLE14=The Searchers - It's Too Late
TTITLE15=Dwight Twilley Band - I'm on Fire
TTITLE16=The Knack - Good Girls Don't
TTITLE17=Shoes - Too Late
TTITLE18=Dirty Looks - Let Go
TTITLE19=Badfinger - Baby Blue
EXTD=
EXTT0=
EXTT1=
EXTT2=
EXTT3=
EXTT4=
EXTT5=
EXTT6=
EXTT7=
EXTT8=
EXTT9=
EXTT10=
EXTT11=
EXTT12=
EXTT13=
EXTT14=
EXTT15=
EXTT16=
EXTT17=
EXTT18=
EXTT19=
PLAYORDER=
